<?xml version="1.0" encoding="UTF-8"?>
<svg xmlns="http://www.w3.org/2000/svg" width="1380" height="1280" viewBox="0 0 1380 1280" font-family="ui-sans-serif, system-ui, -apple-system, 'PingFang SC', 'Microsoft YaHei', 'Segoe UI', Roboto, sans-serif">
  <defs>
    <linearGradient id="bg" x1="0" y1="0" x2="0" y2="1">
      <stop offset="0" stop-color="#f7fafd"/>
      <stop offset="1" stop-color="#eef3f9"/>
    </linearGradient>
    <radialGradient id="bgGlow" cx="0.5" cy="0.02" r="0.7">
      <stop offset="0" stop-color="#ffffff" stop-opacity="0.9"/>
      <stop offset="1" stop-color="#ffffff" stop-opacity="0"/>
    </radialGradient>
    <linearGradient id="traceBanner" x1="0" y1="0" x2="1" y2="0">
      <stop offset="0" stop-color="#22d3ee"/><stop offset="0.5" stop-color="#06b6d4"/><stop offset="1" stop-color="#0891b2"/>
    </linearGradient>
    <filter id="shadow" x="-6%" y="-6%" width="112%" height="120%">
      <feGaussianBlur in="SourceAlpha" stdDeviation="3"/>
      <feOffset dx="0" dy="2"/>
      <feComponentTransfer><feFuncA type="linear" slope="0.13"/></feComponentTransfer>
      <feMerge><feMergeNode/><feMergeNode in="SourceGraphic"/></feMerge>
    </filter>
    <marker id="arrow" viewBox="0 0 10 10" refX="9" refY="5" markerWidth="7" markerHeight="7" orient="auto-start-reverse"><path d="M0,0 L10,5 L0,10 z" fill="#94a3b8"/></marker>
    <marker id="arrowA" viewBox="0 0 10 10" refX="9" refY="5" markerWidth="7" markerHeight="7" orient="auto-start-reverse"><path d="M0,0 L10,5 L0,10 z" fill="#d97706"/></marker>
    <marker id="arrowO" viewBox="0 0 10 10" refX="9" refY="5" markerWidth="7" markerHeight="7" orient="auto-start-reverse"><path d="M0,0 L10,5 L0,10 z" fill="#ea580c"/></marker>
    <style>
      .mono { font-family: ui-monospace, 'SF Mono', Menlo, Consolas, monospace; }
      .code { fill: #0f172a; font-family: ui-monospace, 'SF Mono', Menlo, Consolas, monospace; }
      .field { font-size: 10.5px; fill: #475569; }
      .fieldc { font-size: 10.5px; }
      .boxt { font-size: 12.5px; font-weight: 700; }
      .sech { font-size: 14px; font-weight: 700; }
      .chip { font-size: 9.5px; font-weight: 600; }
    </style>
  </defs>

  <!-- ===== Background ===== -->
  <rect x="0" y="0" width="1380" height="1280" fill="url(#bg)"/>
  <rect x="0" y="0" width="1380" height="1280" fill="url(#bgGlow)"/>

  <!-- ===== Title ===== -->
  <rect x="60" y="32" width="6" height="40" rx="3" fill="#0891b2"/>
  <text x="80" y="56" font-size="24" font-weight="700" fill="#0f172a">SkyWalking Trace 链路模型整体架构</text>
  <text x="80" y="77" font-size="12.5" fill="#64748b">基于 9.3.0 源码 · 分布式链路组成 / 内存数据模型 / 采集与上报流水线</text>
  <text x="1320" y="56" text-anchor="end" font-size="12" fill="#64748b">Apache SkyWalking · Java Agent v9.3.0</text>
  <line x1="60" y1="92" x2="1320" y2="92" stroke="#e2e8f0" stroke-width="1"/>

  <!-- ================================================================ -->
  <!-- SECTION 1 : 分布式链路组成                                         -->
  <!-- ================================================================ -->
  <rect x="60" y="102" width="1260" height="30" rx="8" fill="#ecfeff" stroke="#a5f3fc" stroke-width="1"/>
  <text x="76" y="122" class="sech" fill="#0e7490">① 分布式链路组成：一个 Trace = 多个 TraceSegment，经 TraceSegmentRef 串联（跨进程经 sw8 传播）</text>

  <!-- Global Trace banner -->
  <rect x="60" y="146" width="1260" height="34" rx="17" fill="url(#traceBanner)" filter="url(#shadow)"/>
  <text x="690" y="168" text-anchor="middle" font-size="13.5" font-weight="700" fill="#ffffff">Global Trace  ·  traceId = <tspan class="mono" font-weight="600">a3f2c9…8b1.7.1680234567890</tspan>   （relatedGlobalTraceId 贯穿所有 Segment）</text>
  <!-- down ticks to lanes -->
  <path d="M260,180 L252,190 L268,190 Z" fill="#06b6d4"/>
  <path d="M710,180 L702,190 L718,190 Z" fill="#06b6d4"/>
  <path d="M1140,180 L1132,190 L1148,190 Z" fill="#06b6d4"/>

  <!-- ===== Lane A : Service A ===== -->
  <rect x="70" y="196" width="380" height="28" rx="14" fill="#f1f5f9" stroke="#cbd5e1" stroke-width="1"/>
  <text x="86" y="215" font-size="12" font-weight="700" fill="#334155">Service A · svc-a</text>
  <text x="440" y="215" text-anchor="end" font-size="10.5" fill="#64748b" class="mono">instance 12ab…</text>

  <rect x="70" y="232" width="380" height="150" rx="12" fill="#ffffff" stroke="#e2e8f0" stroke-width="1" filter="url(#shadow)"/>
  <rect x="70" y="232" width="380" height="30" rx="12" fill="#0891b2" fill-opacity="0.10"/>
  <rect x="70" y="248" width="380" height="14" fill="#0891b2" fill-opacity="0.10"/>
  <line x1="70" y1="262" x2="450" y2="262" stroke="#0891b2" stroke-opacity="0.25"/>
  <text x="86" y="252" class="boxt" fill="#0e7490">TraceSegment</text>
  <text x="440" y="252" text-anchor="end" font-size="10.5" fill="#64748b" class="mono">segmentId = SegA</text>

  <!-- A span rows : pitch 30 from 278 -->
  <g font-size="10.5">
    <!-- #0 Entry -->
    <rect x="82" y="278" width="5" height="22" rx="2" fill="#2563eb"/>
    <text x="94" y="293" font-weight="700" fill="#2563eb">#0</text>
    <rect x="112" y="281" width="40" height="16" rx="8" fill="#dbeafe"/><text x="132" y="292.5" text-anchor="middle" class="chip" fill="#1d4ed8">Entry</text>
    <text x="160" y="293" class="code">Tomcat · HTTP /order</text>
    <text x="436" y="293" text-anchor="end" font-size="9.5" fill="#94a3b8">p=-1</text>
    <!-- #1 Local -->
    <rect x="82" y="308" width="5" height="22" rx="2" fill="#64748b"/>
    <text x="94" y="323" font-weight="700" fill="#64748b">#1</text>
    <rect x="112" y="311" width="40" height="16" rx="8" fill="#f1f5f9"/><text x="132" y="322.5" text-anchor="middle" class="chip" fill="#475569">Local</text>
    <text x="160" y="323" class="code">OrderService.create</text>
    <text x="436" y="323" text-anchor="end" font-size="9.5" fill="#94a3b8">p=#0</text>
    <!-- #2 Exit -->
    <rect x="82" y="338" width="5" height="22" rx="2" fill="#16a34a"/>
    <text x="94" y="353" font-weight="700" fill="#16a34a">#2</text>
    <rect x="112" y="341" width="40" height="16" rx="8" fill="#dcfce7"/><text x="132" y="352.5" text-anchor="middle" class="chip" fill="#15803d">Exit</text>
    <text x="160" y="353" class="code">RPC /query → svc-b:20880</text>
    <text x="436" y="353" text-anchor="end" font-size="9.5" fill="#94a3b8">p=#0</text>
  </g>

  <!-- ===== Lane B : Service B ===== -->
  <rect x="520" y="196" width="380" height="28" rx="14" fill="#f1f5f9" stroke="#cbd5e1" stroke-width="1"/>
  <text x="536" y="215" font-size="12" font-weight="700" fill="#334155">Service B · svc-b</text>
  <text x="890" y="215" text-anchor="end" font-size="10.5" fill="#64748b" class="mono">instance 7c3f…</text>

  <rect x="520" y="232" width="380" height="180" rx="12" fill="#ffffff" stroke="#e2e8f0" stroke-width="1" filter="url(#shadow)"/>
  <rect x="520" y="232" width="380" height="30" rx="12" fill="#0891b2" fill-opacity="0.10"/>
  <rect x="520" y="248" width="380" height="14" fill="#0891b2" fill-opacity="0.10"/>
  <line x1="520" y1="262" x2="900" y2="262" stroke="#0891b2" stroke-opacity="0.25"/>
  <text x="536" y="252" class="boxt" fill="#0e7490">TraceSegment</text>
  <text x="890" y="252" text-anchor="end" font-size="10.5" fill="#64748b" class="mono">segmentId = SegB</text>

  <g font-size="10.5">
    <!-- #0 Entry + ref badge -->
    <rect x="532" y="278" width="5" height="22" rx="2" fill="#2563eb"/>
    <text x="544" y="293" font-weight="700" fill="#2563eb">#0</text>
    <rect x="562" y="281" width="40" height="16" rx="8" fill="#dbeafe"/><text x="582" y="292.5" text-anchor="middle" class="chip" fill="#1d4ed8">Entry</text>
    <text x="610" y="293" class="code">RPC Server /query</text>
    <rect x="824" y="281" width="62" height="16" rx="8" fill="#fff1f2" stroke="#fecdd3" stroke-width="0.8"/><text x="855" y="292.5" text-anchor="middle" class="chip" fill="#be123c">ref←A#2</text>
    <!-- #1 Local -->
    <rect x="532" y="308" width="5" height="22" rx="2" fill="#64748b"/>
    <text x="544" y="323" font-weight="700" fill="#64748b">#1</text>
    <rect x="562" y="311" width="40" height="16" rx="8" fill="#f1f5f9"/><text x="582" y="322.5" text-anchor="middle" class="chip" fill="#475569">Local</text>
    <text x="610" y="323" class="code">OrderService.validate</text>
    <text x="886" y="323" text-anchor="end" font-size="9.5" fill="#94a3b8">p=#0</text>
    <!-- #2 Exit DB -->
    <rect x="532" y="338" width="5" height="22" rx="2" fill="#16a34a"/>
    <text x="544" y="353" font-weight="700" fill="#16a34a">#2</text>
    <rect x="562" y="341" width="40" height="16" rx="8" fill="#dcfce7"/><text x="582" y="352.5" text-anchor="middle" class="chip" fill="#15803d">Exit</text>
    <text x="610" y="353" class="code">MySQL SELECT → db:3306</text>
    <text x="886" y="353" text-anchor="end" font-size="9.5" fill="#94a3b8">p=#0</text>
    <!-- #3 Exit RPC to C -->
    <rect x="532" y="368" width="5" height="22" rx="2" fill="#16a34a"/>
    <text x="544" y="383" font-weight="700" fill="#16a34a">#3</text>
    <rect x="562" y="371" width="40" height="16" rx="8" fill="#dcfce7"/><text x="582" y="382.5" text-anchor="middle" class="chip" fill="#15803d">Exit</text>
    <text x="610" y="383" class="code">RPC /stock → svc-c:20880</text>
    <text x="886" y="383" text-anchor="end" font-size="9.5" fill="#94a3b8">p=#0</text>
  </g>

  <!-- ===== Lane C : Service C ===== -->
  <rect x="970" y="196" width="340" height="28" rx="14" fill="#f1f5f9" stroke="#cbd5e1" stroke-width="1"/>
  <text x="986" y="215" font-size="12" font-weight="700" fill="#334155">Service C · svc-c</text>
  <text x="1300" y="215" text-anchor="end" font-size="10.5" fill="#64748b" class="mono">instance e9d1…</text>

  <rect x="970" y="232" width="340" height="120" rx="12" fill="#ffffff" stroke="#e2e8f0" stroke-width="1" filter="url(#shadow)"/>
  <rect x="970" y="232" width="340" height="30" rx="12" fill="#0891b2" fill-opacity="0.10"/>
  <rect x="970" y="248" width="340" height="14" fill="#0891b2" fill-opacity="0.10"/>
  <line x1="970" y1="262" x2="1310" y2="262" stroke="#0891b2" stroke-opacity="0.25"/>
  <text x="986" y="252" class="boxt" fill="#0e7490">TraceSegment</text>
  <text x="1296" y="252" text-anchor="end" font-size="10.5" fill="#64748b" class="mono">segmentId = SegC</text>

  <g font-size="10.5">
    <rect x="982" y="278" width="5" height="22" rx="2" fill="#2563eb"/>
    <text x="994" y="293" font-weight="700" fill="#2563eb">#0</text>
    <rect x="1012" y="281" width="40" height="16" rx="8" fill="#dbeafe"/><text x="1032" y="292.5" text-anchor="middle" class="chip" fill="#1d4ed8">Entry</text>
    <text x="1060" y="293" class="code">RPC Server /stock</text>
    <rect x="1234" y="281" width="62" height="16" rx="8" fill="#fff1f2" stroke="#fecdd3" stroke-width="0.8"/><text x="1265" y="292.5" text-anchor="middle" class="chip" fill="#be123c">ref←B#3</text>
    <rect x="982" y="308" width="5" height="22" rx="2" fill="#64748b"/>
    <text x="994" y="323" font-weight="700" fill="#64748b">#1</text>
    <rect x="1012" y="311" width="40" height="16" rx="8" fill="#f1f5f9"/><text x="1032" y="322.5" text-anchor="middle" class="chip" fill="#475569">Local</text>
    <text x="1060" y="323" class="code">StockService.check</text>
    <text x="1296" y="323" text-anchor="end" font-size="9.5" fill="#94a3b8">p=#0</text>
  </g>

  <!-- sw8 propagation arrows -->
  <line x1="450" y1="349" x2="518" y2="290" stroke="#d97706" stroke-width="2" marker-end="url(#arrowA)"/>
  <rect x="455" y="308" width="60" height="30" rx="6" fill="#fffbeb" stroke="#fcd34d" stroke-width="1"/>
  <text x="485" y="318" text-anchor="middle" font-size="9.5" font-weight="700" fill="#b45309">sw8</text>
  <text x="485" y="329" text-anchor="middle" font-size="8" fill="#b45309">inject→extract</text>

  <line x1="900" y1="379" x2="968" y2="290" stroke="#d97706" stroke-width="2" marker-end="url(#arrowA)"/>
  <rect x="905" y="318" width="60" height="30" rx="6" fill="#fffbeb" stroke="#fcd34d" stroke-width="1"/>
  <text x="935" y="331" text-anchor="middle" font-size="9.5" font-weight="700" fill="#b45309">sw8</text>
  <text x="935" y="342" text-anchor="middle" font-size="8" fill="#b45309">inject→extract</text>

  <!-- note -->
  <rect x="60" y="422" width="1260" height="40" rx="8" fill="#f8fafc" stroke="#e2e8f0" stroke-width="1"/>
  <text x="76" y="435" font-size="11.5" fill="#475569"><tspan font-weight="700" fill="#0e7490">TraceSegmentRef（CROSS_PROCESS）</tspan>  </text>
    <text x="76" y="455" font-size="11" fill="#b45309">在 Entry 端由 ContextCarrier.extract() 重建，记录父 Segment 的 traceSegmentId + spanId，把各服务实例的 Segment 拼成完整分布式 Trace；同进程跨线程则用 ContextSnapshot → CROSS_THREAD。</text>
  <!-- ================================================================ -->
  <!-- SECTION 2 : 内存数据模型                                          -->
  <!-- ================================================================ -->
  <rect x="60" y="472" width="1260" height="30" rx="8" fill="#f5f3ff" stroke="#ddd6fe" stroke-width="1"/>
  <text x="76" y="492" class="sech" fill="#6d28d9">② Agent 内存数据模型：Span 类型层次 · Segment 结构 · 跨进程上下文</text>

  <!-- ===== Left column : Span type hierarchy ===== -->
  <text x="76" y="524" font-size="12.5" font-weight="700" fill="#7c3aed">Span 类型层次</text>

  <rect x="86" y="538" width="570" height="28" rx="6" fill="#faf5ff" stroke="#c4b5fd" stroke-width="1"/>
  <text x="100" y="556" font-size="11.5" fill="#5b21b6">«interface»  <tspan font-weight="700">AbstractSpan</tspan>   <tspan fill="#94a3b8">(extends AsyncSpan)</tspan></text>

  <rect x="86" y="578" width="570" height="66" rx="6" fill="#ffffff" stroke="#c4b5fd" stroke-width="1" filter="url(#shadow)"/>
  <text x="100" y="596" font-size="11.5" font-weight="700" fill="#5b21b6">└─ AbstractTracingSpan  <tspan font-weight="400" fill="#94a3b8">(abstract)</tspan></text>
  <text x="100" y="616" class="field">spanId · parentSpanId(-1=根) · operationName · componentId · spanLayer</text>
  <text x="100" y="633" class="field">startTime / endTime · tags[] · logs[] · refs[] · errorOccurred · skipAnalysis</text>

  <rect x="116" y="656" width="540" height="26" rx="6" fill="#faf5ff" stroke="#c4b5fd" stroke-width="1"/>
  <text x="130" y="673" font-size="11.5" fill="#5b21b6">└─ <tspan font-weight="700">StackBasedTracingSpan</tspan>   <tspan fill="#94a3b8">(stackDepth, peer — 仅栈底记录耗时/标签)</tspan></text>

  <rect x="116" y="692" width="172" height="46" rx="6" fill="#eff6ff" stroke="#bfdbfe" stroke-width="1"/>
  <text x="202" y="711" text-anchor="middle" font-size="11.5" font-weight="700" fill="#1d4ed8">EntrySpan</text>
  <text x="202" y="727" text-anchor="middle" font-size="9.5" fill="#475569">入口端点·栈深度复用</text>

  <rect x="300" y="692" width="172" height="46" rx="6" fill="#f0fdf4" stroke="#bbf7d0" stroke-width="1"/>
  <text x="386" y="711" text-anchor="middle" font-size="11.5" font-weight="700" fill="#15803d">ExitSpan</text>
  <text x="386" y="727" text-anchor="middle" font-size="9.5" fill="#475569">出口调用·peer+inject()</text>

  <rect x="484" y="692" width="172" height="46" rx="6" fill="#f8fafc" stroke="#cbd5e1" stroke-width="1"/>
  <text x="570" y="711" text-anchor="middle" font-size="11.5" font-weight="700" fill="#475569">LocalSpan</text>
  <text x="570" y="727" text-anchor="middle" font-size="9.5" fill="#64748b">本地方法·无 peer</text>

  <rect x="116" y="750" width="260" height="26" rx="6" fill="#f8fafc" stroke="#cbd5e1" stroke-width="1" stroke-dasharray="4 2"/>
  <text x="130" y="767" font-size="11.5" fill="#64748b">└─ <tspan font-weight="700">NoopSpan</tspan>  <tspan fill="#94a3b8">(未采样/后端断开占位)</tspan></text>

  <text x="76" y="800" font-size="11" font-weight="700" fill="#7c3aed">SpanLayer：</text>
  <g font-size="9.5" font-weight="600">
    <rect x="140" y="788" width="44" height="18" rx="9" fill="#fef3c7"/><text x="162" y="801" text-anchor="middle" fill="#92400e">DB</text>
    <rect x="190" y="788" width="44" height="18" rx="9" fill="#fef3c7"/><text x="212" y="801" text-anchor="middle" fill="#92400e">RPC</text>
    <rect x="240" y="788" width="50" height="18" rx="9" fill="#fef3c7"/><text x="265" y="801" text-anchor="middle" fill="#92400e">HTTP</text>
    <rect x="296" y="788" width="44" height="18" rx="9" fill="#fef3c7"/><text x="318" y="801" text-anchor="middle" fill="#92400e">MQ</text>
    <rect x="346" y="788" width="54" height="18" rx="9" fill="#fef3c7"/><text x="373" y="801" text-anchor="middle" fill="#92400e">CACHE</text>
  </g>
  <text x="76" y="828" font-size="10" fill="#94a3b8">tags: StringTag / IntegerTag · logs: LogDataEntity(time + kv)</text>

  <!-- ===== Right column : Segment / context / ref ===== -->
  <text x="716" y="524" font-size="12.5" font-weight="700" fill="#7c3aed">TraceSegment · 上下文 · 引用</text>

  <rect x="716" y="538" width="566" height="66" rx="8" fill="#ffffff" stroke="#c4b5fd" stroke-width="1" filter="url(#shadow)"/>
  <text x="730" y="556" font-size="11.5" font-weight="700" fill="#5b21b6">TracingContext  <tspan font-weight="400" fill="#94a3b8">(每线程一个 · ThreadLocal&lt;AbstractTracerContext&gt;)</tspan></text>
  <text x="730" y="575" class="field">segment: TraceSegment · activeSpanStack: LIFO&lt;AbstractSpan&gt; · spanIdGenerator(0起)</text>
  <text x="730" y="592" class="field">primaryEndpoint(首个 Entry opName) · asyncSpanCounter(异步 span 计数)</text>

  <rect x="716" y="618" width="566" height="80" rx="8" fill="#ffffff" stroke="#c4b5fd" stroke-width="1" filter="url(#shadow)"/>
  <text x="730" y="636" font-size="11.5" font-weight="700" fill="#5b21b6">TraceSegment  <tspan font-weight="400" fill="#94a3b8">→ transform() 生成 SegmentObject(protobuf)</tspan></text>
  <text x="730" y="655" class="field">traceSegmentId (GlobalIdGenerator) · relatedGlobalTraceId: DistributedTraceId</text>
  <text x="730" y="672" class="field">ref: TraceSegmentRef(仅首个父) · spans[]: List&lt;AbstractTracingSpan&gt; · isSizeLimited</text>
  <text x="730" y="689" class="field">初值 NewDistributedTraceId，extract 后替换为 PropagatedTraceId（贯穿下游）</text>

  <rect x="716" y="712" width="272" height="118" rx="8" fill="#fff1f2" stroke="#fecdd3" stroke-width="1" filter="url(#shadow)"/>
  <text x="730" y="730" font-size="11.5" font-weight="700" fill="#be123c">TraceSegmentRef</text>
  <text x="730" y="747" class="field" fill="#9f1239">refType: CROSS_PROCESS</text>
  <text x="730" y="763" class="field" fill="#9f1239">        / CROSS_THREAD</text>
  <text x="730" y="780" class="field">traceId · traceSegmentId</text>
  <text x="730" y="796" class="field">· spanId（指向父 span）</text>
  <text x="730" y="813" class="field">parentService/Instance/Endpoint</text>
  <text x="730" y="826" class="field">addressUsedAtClient</text>

  <rect x="1010" y="712" width="272" height="118" rx="8" fill="#fffbeb" stroke="#fcd34d" stroke-width="1" filter="url(#shadow)"/>
  <text x="1024" y="730" font-size="11.5" font-weight="700" fill="#b45309">ContextCarrier  (sw8 报文)</text>
  <text x="1024" y="750" class="field mono" fill="#92400e">1-{b64 traceId}-</text>
  <text x="1024" y="766" class="field mono" fill="#92400e">{b64 segId}-{spanId}-</text>
  <text x="1024" y="782" class="field mono" fill="#92400e">{b64 parentService}-…</text>
  <text x="1024" y="804" font-size="10.5" fill="#475569">Exit 端 <tspan class="code">inject()</tspan> 注入</text>
  <text x="1024" y="820" font-size="10.5" fill="#475569">Entry 端 <tspan class="code">extract()</tspan> 解析</text>

  <rect x="716" y="840" width="566" height="40" rx="6" fill="#f8fafc" stroke="#e2e8f0" stroke-width="1"/>
  <text x="730" y="858" font-size="10.5" fill="#475569"><tspan class="code" fill="#0f172a">GlobalIdGenerator</tspan>: {processId}.{threadId}.{timestamp×10000+seq}</text>
  <text x="730" y="876" font-size="10.5" fill="#475569">跨线程：<tspan class="code" fill="#0f172a">ContextSnapshot</tspan> capture -&gt; continued -&gt; CROSS_THREAD ref</text>

  <!-- ================================================================ -->
  <!-- SECTION 3 : 采集与上报流水线                                      -->
  <!-- ================================================================ -->
  <rect x="60" y="895" width="1230" height="30" rx="8" fill="#fff7ed" stroke="#fed7aa" stroke-width="1"/>
  <text x="76" y="914" class="sech" fill="#c2410c">③ 采集与上报流水线：线程内构建 → 缓冲 → 序列化 → gRPC 上报</text>

  <!-- pipeline nodes (y 938-1048, h110) -->
  <g>
    <!-- n1 -->
    <rect x="86" y="938" width="140" height="110" rx="10" fill="#ffffff" stroke="#fed7aa" stroke-width="1" filter="url(#shadow)"/>
    <rect x="86" y="938" width="140" height="26" rx="10" fill="#ea580c" fill-opacity="0.12"/>
    <text x="156" y="955" text-anchor="middle" font-size="11.5" font-weight="700" fill="#9a3412">① 插件拦截器</text>
    <text x="156" y="978" text-anchor="middle" font-size="10" fill="#475569">Plugin Enhance</text>
    <text x="156" y="995" text-anchor="middle" font-size="9.5" class="code">createEntrySpan</text>
    <text x="156" y="1010" text-anchor="middle" font-size="9.5" class="code">createLocalSpan</text>
    <text x="156" y="1025" text-anchor="middle" font-size="9.5" class="code">createExitSpan</text>

    <!-- n2 -->
    <rect x="261" y="938" width="140" height="110" rx="10" fill="#ffffff" stroke="#fed7aa" stroke-width="1" filter="url(#shadow)"/>
    <rect x="261" y="938" width="140" height="26" rx="10" fill="#ea580c" fill-opacity="0.12"/>
    <text x="331" y="955" text-anchor="middle" font-size="11.5" font-weight="700" fill="#9a3412">② ContextManager</text>
    <text x="331" y="978" text-anchor="middle" font-size="10" fill="#475569">ThreadLocal</text>
    <text x="331" y="995" text-anchor="middle" font-size="9.5" class="code">getOrCreate()</text>
    <text x="331" y="1012" text-anchor="middle" font-size="9.5" fill="#64748b">→ ExtendService</text>
    <text x="331" y="1027" text-anchor="middle" font-size="9.5" fill="#64748b">createTraceContext</text>

    <!-- n3 -->
    <rect x="436" y="938" width="140" height="110" rx="10" fill="#ffffff" stroke="#fed7aa" stroke-width="1" filter="url(#shadow)"/>
    <rect x="436" y="938" width="140" height="26" rx="10" fill="#ea580c" fill-opacity="0.12"/>
    <text x="506" y="955" text-anchor="middle" font-size="11.5" font-weight="700" fill="#9a3412">③ 采样门</text>
    <text x="506" y="978" text-anchor="middle" font-size="10" class="code">SamplingService</text>
    <text x="506" y="995" text-anchor="middle" font-size="9.5" class="code">trySample()</text>
    <text x="506" y="1013" text-anchor="middle" font-size="9" fill="#16a34a">✓ 采样→TracingContext</text>
    <text x="506" y="1028" text-anchor="middle" font-size="9" fill="#dc2626">✗ 丢弃→NoopSpan</text>

    <!-- n4 -->
    <rect x="611" y="938" width="140" height="110" rx="10" fill="#ffffff" stroke="#fed7aa" stroke-width="1" filter="url(#shadow)"/>
    <rect x="611" y="938" width="140" height="26" rx="10" fill="#ea580c" fill-opacity="0.12"/>
    <text x="681" y="955" text-anchor="middle" font-size="11.5" font-weight="700" fill="#9a3412">④ TracingContext</text>
    <text x="681" y="978" text-anchor="middle" font-size="10" fill="#475569">构建 Segment</text>
    <text x="681" y="995" text-anchor="middle" font-size="10" fill="#475569">+ span 栈</text>
    <text x="681" y="1013" text-anchor="middle" font-size="9.5" class="code">stopSpan → finish</text>
    <text x="681" y="1028" text-anchor="middle" font-size="9" fill="#64748b">栈空且 async=0</text>

    <!-- n5 -->
    <rect x="786" y="938" width="140" height="110" rx="10" fill="#ffffff" stroke="#fed7aa" stroke-width="1" filter="url(#shadow)"/>
    <rect x="786" y="938" width="140" height="26" rx="10" fill="#ea580c" fill-opacity="0.12"/>
    <text x="856" y="955" text-anchor="middle" font-size="11.5" font-weight="700" fill="#9a3412">⑤ 缓冲入队</text>
    <text x="856" y="978" text-anchor="middle" font-size="9.5" class="code">afterFinished</text>
    <text x="856" y="993" text-anchor="middle" font-size="9.5" fill="#64748b">(TracingContextListener)</text>
    <text x="856" y="1011" text-anchor="middle" font-size="9.5" class="code">DataCarrier</text>
    <text x="856" y="1026" text-anchor="middle" font-size="9" fill="#64748b">5ch × 300 · IF_POSSIBLE</text>

    <!-- n6 -->
    <rect x="961" y="938" width="140" height="110" rx="10" fill="#ffffff" stroke="#fed7aa" stroke-width="1" filter="url(#shadow)"/>
    <rect x="961" y="938" width="140" height="26" rx="10" fill="#ea580c" fill-opacity="0.12"/>
    <text x="1031" y="955" text-anchor="middle" font-size="11.5" font-weight="700" fill="#9a3412">⑥ 消费序列化</text>
    <text x="1031" y="978" text-anchor="middle" font-size="10" class="code">ConsumerThread</text>
    <text x="1031" y="996" text-anchor="middle" font-size="9.5" class="code">transform()</text>
    <text x="1031" y="1013" text-anchor="middle" font-size="9.5" class="code">→ SegmentObject</text>
    <text x="1031" y="1028" text-anchor="middle" font-size="9" fill="#64748b">(protobuf v3)</text>

    <!-- n7 -->
    <rect x="1136" y="938" width="158" height="110" rx="10" fill="#ffffff" stroke="#fed7aa" stroke-width="1" filter="url(#shadow)"/>
    <rect x="1136" y="938" width="158" height="26" rx="10" fill="#ea580c" fill-opacity="0.18"/>
    <text x="1215" y="955" text-anchor="middle" font-size="11.5" font-weight="700" fill="#9a3412">⑦ gRPC 上报</text>
    <text x="1215" y="978" text-anchor="middle" font-size="10" class="code">stream collect()</text>
    <text x="1215" y="996" text-anchor="middle" font-size="9.5" fill="#475569">TraceSegmentReport</text>
    <text x="1215" y="1011" text-anchor="middle" font-size="9.5" fill="#475569">Service</text>
    <text x="1215" y="1029" text-anchor="middle" font-size="10" font-weight="700" fill="#0891b2">→ OAP 后端</text>
  </g>

  <!-- pipeline arrows -->
  <g stroke="#ea580c" stroke-width="2" fill="none" marker-end="url(#arrowO)">
    <line x1="226" y1="993" x2="261" y2="993"/>
    <line x1="401" y1="993" x2="436" y2="993"/>
    <line x1="576" y1="993" x2="611" y2="993"/>
    <line x1="751" y1="993" x2="786" y2="993"/>
    <line x1="926" y1="993" x2="961" y2="993"/>
    <line x1="1101" y1="993" x2="1136" y2="993"/>
  </g>

  <!-- side boxes -->
  <rect x="86" y="1068" width="554" height="180" rx="10" fill="#ffffff" stroke="#e2e8f0" stroke-width="1" filter="url(#shadow)"/>
  <rect x="86" y="1068" width="554" height="28" rx="10" fill="#7c3aed" fill-opacity="0.10"/>
  <text x="100" y="1086" font-size="12" font-weight="700" fill="#6d28d9">协议序列化模型（protobuf v3 · SegmentObject）</text>
  <text x="100" y="1112" font-size="10.5" class="field"><tspan class="code" fill="#0f172a">SegmentObject</tspan> { traceId, traceSegmentId, service/Instance, isSizeLimited, <tspan font-weight="700">spans[]</tspan> }</text>
  <text x="118" y="1132" font-size="10.5" class="field">└─ <tspan class="code" fill="#0f172a">SpanObject</tspan> { spanId, parentSpanId, startTime/endTime, operationName, peer,</text>
  <text x="130" y="1152" font-size="10.5" class="field">spanType(Entry/Exit/Local), componentId, isError, <tspan font-weight="700">refs[]</tspan>, tags[], logs[] }</text>
  <text x="118" y="1172" font-size="10.5" class="field">└─ <tspan class="code" fill="#0f172a">SegmentReference</tspan> { refType(CrossProcess/CrossThread), traceId,</text>
  <text x="130" y="1192" font-size="10.5" class="field">parentTraceSegmentId, parentSpanId, parentService/Instance/Endpoint,</text>
  <text x="130" y="1212" font-size="10.5" class="field">networkAddressUsedAtPeer }</text>
  <text x="100" y="1234" font-size="9.5" fill="#94a3b8">refs 挂在 SpanObject 上（支持多父）；RPC: collect(stream SegmentObject) -&gt; Commands</text>

  <rect x="676" y="1068" width="618" height="180" rx="10" fill="#ffffff" stroke="#e2e8f0" stroke-width="1" filter="url(#shadow)"/>
  <rect x="676" y="1068" width="618" height="28" rx="10" fill="#0891b2" fill-opacity="0.10"/>
  <text x="690" y="1086" font-size="12" font-weight="700" fill="#0e7490">运行期关键行为</text>
  <text x="690" y="1110" font-size="10.5" fill="#475569">• <tspan font-weight="700" fill="#16a34a">forceSampled</tspan>：入站 ContextCarrier 有效 → 强制采样，续接上游已采样的分布式 Trace</text>
  <text x="690" y="1130" font-size="10.5" fill="#475569">• <tspan font-weight="700" fill="#dc2626">通道断开</tspan>：consume 直接 abandon（segmentAbandonedCounter），已从 buffer 取出，不重试不积压</text>
  <text x="690" y="1150" font-size="10.5" fill="#475569">• produce 非阻塞：buffer 满 → 丢弃（IF_POSSIBLE），<tspan font-weight="700">业务线程永不阻塞</tspan></text>
  <text x="690" y="1170" font-size="10.5" fill="#475569">• ConsumerThread 20ms 轮询，批量 transform 后一次 gRPC stream，<tspan class="code">wait4Finish()</tspan> 等 OAP ACK</text>
  <text x="690" y="1190" font-size="10.5" fill="#475569">• GRPCChannelManager 随机选 backend 重连，<tspan class="code">statusChanged</tspan> 通知各 Stub 重建</text>
  <text x="690" y="1210" font-size="10.5" fill="#475569">• OAP 经 Commands <tspan font-weight="700">下发</tspan>动态配置/采样率 → <tspan class="code">CommandService</tspan> → ConfigurationDiscovery</text>

  <text x="690" y="1232" font-size="9.5" fill="#94a3b8">监听注册于 onComplete()；shutdown 时移除监听并关闭消费线程、flush 残留 segment</text>

</svg>
